<?xml version="1.0" encoding="utf-8"?>
<!-- Generator: Adobe Illustrator 22.0.1, SVG Export Plug-In . SVG Version: 6.00 Build 0)  -->
<svg version="1.1" baseProfile="tiny" id="Layer_3" xmlns="http://www.w3.org/2000/svg" xmlns:xlink="http://www.w3.org/1999/xlink"
	 x="0px" y="0px" viewBox="0 0 16 16" xml:space="preserve">
<path fill="#010101" d="M14.8,3.1c-1.6-1.5-4.1-1.5-5.7,0L8,4.2L6.8,3.1c-1.6-1.5-4.1-1.5-5.7,0c-1.6,1.5-1.6,3.9,0,5.4l1.2,1.1
	L8,15l5.7-5.4l1.2-1.1C16.4,7,16.4,4.6,14.8,3.1z M14.1,7.8L8,13.6L1.9,7.8C1.3,7.2,1,6.5,1,5.8c0-0.7,0.3-1.4,0.9-2
	C2.4,3.3,3.2,3,4,3c0.8,0,1.6,0.3,2.1,0.8L8,5.6l1.9-1.8C10.4,3.3,11.2,3,12,3s1.6,0.3,2.1,0.8c0.6,0.5,0.9,1.2,0.9,2
	C15,6.5,14.7,7.2,14.1,7.8z"/>
</svg>
