<?xml version="1.0" encoding="utf-8"?>
<!-- Generator: Adobe Illustrator 22.0.1, SVG Export Plug-In . SVG Version: 6.00 Build 0)  -->
<svg version="1.1" baseProfile="tiny" id="Layer_3" xmlns="http://www.w3.org/2000/svg" xmlns:xlink="http://www.w3.org/1999/xlink"
	 x="0px" y="0px" viewBox="0 0 16 16" xml:space="preserve">
<g>
	<path d="M8,14c-2.2,0-4.1-1.2-5.2-3H5c0.3,0,0.5-0.2,0.5-0.5C5.5,10.2,5.3,10,5,10H2.5c-0.3,0-0.7,0-1,0S1,10.2,1,10.5
		c0,0.3,0,0.7,0,1V14c0,0.3,0.2,0.5,0.5,0.5S2,14.3,2,14v-2.4C3.2,13.6,5.4,15,8,15c3.2,0,5.8-2.1,6.7-5h-1.1
		C12.8,12.3,10.6,14,8,14z"/>
</g>
<g>
	<path d="M8,2c2.2,0,4.1,1.2,5.2,3H11c-0.3,0-0.5,0.2-0.5,0.5C10.5,5.8,10.7,6,11,6h2.5c0.3,0,0.7,0,1,0S15,5.8,15,5.5
		c0-0.3,0-0.7,0-1V2c0-0.3-0.2-0.5-0.5-0.5S14,1.7,14,2v2.4C12.8,2.4,10.6,1,8,1C4.8,1,2.2,3.1,1.3,6h1.1C3.2,3.7,5.4,2,8,2z"/>
</g>
</svg>
