<?xml version="1.0" encoding="utf-8"?>
<!-- Generator: Adobe Illustrator 22.0.1, SVG Export Plug-In . SVG Version: 6.00 Build 0)  -->
<svg version="1.1" baseProfile="tiny" id="Layer_3" xmlns="http://www.w3.org/2000/svg" xmlns:xlink="http://www.w3.org/1999/xlink"
	 x="0px" y="0px" viewBox="0 0 16 16" xml:space="preserve">
<path d="M10,7H2.7l3.2-3.2c0.2-0.2,0.2-0.5,0-0.7s-0.5-0.2-0.7,0l-4,4C1,7.3,1,7.7,1.1,7.9l4,4c0.2,0.2,0.5,0.2,0.7,0
	c0.2-0.2,0.2-0.5,0-0.7L2.7,8H10c2.2,0,4,1.8,4,4v0.5V13v0.5c0,0.3,0.2,0.5,0.5,0.5s0.5-0.2,0.5-0.5V13v-0.5V12C15,9.2,12.8,7,10,7z
	"/>
</svg>
