<?xml version="1.0" encoding="utf-8"?>
<!-- Generator: Adobe Illustrator 22.0.1, SVG Export Plug-In . SVG Version: 6.00 Build 0)  -->
<svg version="1.1" baseProfile="tiny" id="Layer_4" xmlns="http://www.w3.org/2000/svg" xmlns:xlink="http://www.w3.org/1999/xlink"
	 x="0px" y="0px" viewBox="0 0 16 16" xml:space="preserve">
<path d="M8,0c0,2-7,2-7,2s0,6,0,8.4c0,4,7,5.2,7,5.6c0-0.4,7-1.6,7-5.6C15,8,15,2,15,2S8,2,8,0z M10.9,10.2l-0.7,0.7L8,8.7l-2.2,2.2
	l-0.7-0.7L7.3,8L5.1,5.8l0.7-0.7L8,7.3l2.2-2.2l0.7,0.7L8.7,8L10.9,10.2z"/>
</svg>
