<?xml version="1.0" encoding="utf-8"?>
<svg version="1.1" baseProfile="tiny" xmlns="http://www.w3.org/2000/svg" xmlns:xlink="http://www.w3.org/1999/xlink" x="0px"
	 y="0px" viewBox="0 0 200 200" xml:space="preserve">
<g id="default">
	<polygon points="178.3,86.9 174.4,91.6 168.3,92 173,95.9 173.5,102 177.3,97.3 183.4,96.9 178.7,93 		"/>
	<polygon points="188,18.7 189.1,14.3 185.3,16.8 180.9,15.7 183.4,19.5 182.2,23.9 186.1,21.4 190.5,22.6 		"/>
	<polygon points="178.5,75.9 176,76.4 178.2,77.8 178.7,80.3 180.1,78.1 182.6,77.6 180.4,76.3 179.9,73.8 		"/>
	<circle cx="166" cy="65" r="3"/>
	<circle cx="178" cy="42" r="2"/>
	<polygon points="25.5,75.5 24.2,83.1 17.7,87.3 25.3,88.6 29.6,95 30.9,87.4 37.3,83.2 29.7,81.9 		"/>
	<polygon points="55.3,134.4 53.9,136.6 51.4,137.1 53.6,138.5 54.1,141 55.5,138.8 58,138.3 55.8,136.9 		"/>
	<polygon points="28.3,44 30.3,45.7 30,43.1 31.7,41.1 29.1,41.4 27.1,39.8 27.4,42.3 25.8,44.3 		"/>
	<circle cx="33" cy="113.8" r="2"/>
	<circle cx="8" cy="32.8" r="5"/>
	<ellipse cx="100" cy="190" rx="35" ry="10" opacity="0.333" />
	<path d="M158.1,5.8c-1.8-0.1-1.6,2.9-3.2,3.3c-1.4,0.3,0-5.6-2.2-5.1c-2,0.5-1.1,5.7-2.6,5.9c-1.4,0.2-2.6-4-4.7-2.8
		c-2.1,1.1,1.7,4.3,1.2,5.8c-0.5,1.6-4.5,0.8-4.6,2.7c-0.2,2.9,4.6,0.6,5.3,1.1c0.7,0.5,2,17.6,0.4,27.6c-0.4,2.4-0.9,6.6-1.4,11.1
		C136.8,38.5,118.7,27,98,27c-17.7,0-33.5,8.4-43.5,21.4c-0.4-3.3-0.7-6.2-1.1-8.1c-1.6-10-0.3-27.2,0.4-27.6
		c0.7-0.5,5.4,1.8,5.3-1.1c-0.1-1.9-4.1-1.2-4.6-2.7c-0.5-1.6,3.3-4.7,1.2-5.8c-2.1-1.2-3.3,3-4.7,2.8c-1.5-0.2-0.6-5.4-2.6-5.9
		c-2.2-0.5-0.7,5.4-2.2,5.1c-1.6-0.3-1.4-3.3-3.2-3.3c-1.9,0.1-0.6,3-0.1,6.8c0.2,3.8,3,27.9,3.4,38c0.1,2.3,0.9,7,2,12
		C44.9,65.8,43,73.7,43,82c0,21.3,12.2,39.8,29.9,48.9l0.3,8.5c0,1.1-0.2,2.8-0.6,3.9l-6.3,16.6c-0.4,1-0.5,2.4-0.3,3
		s1.2,1.5,2.2,1.9l13.8,5.5c1,0.4,2.1,0.2,2.3-0.5s0.1-2-0.5-3l-5.6-10c-0.5-1-0.7-2.6-0.5-3.7l2.5-9.7c0.3-1.1,0.4-2.8,0.2-3.9
		l-0.9-5.9c5.8,2,11.9,3.2,18.4,3.2c7.9,0,15.4-1.7,22.1-4.6l0.1,2.1c0,1.1-0.2,2.8-0.6,3.9l-6.3,16.6c-0.4,1-0.5,2.4-0.3,3
		s1.2,1.5,2.2,1.9l13.8,5.5c1,0.4,2.1,0.2,2.3-0.5s0.1-2-0.5-3l-5.6-10c-0.5-1-0.7-2.6-0.5-3.7l2.5-9.7c0.3-1.1,0.4-2.8,0.2-3.9
		l-0.9-5.8c15.8-9.7,26.4-27.1,26.4-47c0-4.6-0.6-9.2-1.7-13.5c1.7-6.8,3.3-14.8,3.4-17.9c0.4-10.2,3.2-34.2,3.4-38
		C158.6,8.8,160,5.9,158.1,5.8z M97.5,75.4c-1.2,2.6-2.8,4.9-5.4,5.8c-1.8,0.2-3.5-0.3-5.1-1.3c-0.5-0.2-1-0.3-1.3-0.5
		c-4.4-3-10.2-5.6-8.2-11.5c0.8-2.5,3-3.8,5.4-3.6c1.8,0.2,3.3,1,4.4,2.1c0.7-2,1.5-3.6,3.3-4.6c2.6-1.3,5.8-0.2,7.4,2.1
		C100.6,67.5,99.1,71.8,97.5,75.4z M110.5,84.2c-3.8,0.3-6.4-3.3-5.9-6.8c0.3-1.5,2.6-0.8,2.3,0.7c-0.3,2,1.6,4.1,3.6,3.6
		c1.8-0.3,3-2.5,2.3-4.3c-0.5-1.5,1.8-2.1,2.3-0.7C116.3,79.9,114,83.8,110.5,84.2z M134.4,79.4c-0.5,0-0.8,0.2-1.3,0.5
		c-1.6,1-3.3,1.5-5.1,1.3c-2.6-0.8-4.1-3.1-5.4-5.8c-1.6-3.6-3.1-7.9-0.5-11.5c1.6-2.3,4.8-3.6,7.4-2.1c1.8,1,2.8,2.6,3.3,4.6
		c1.2-1.2,2.6-2,4.4-2.1c2.5-0.2,4.6,1.3,5.4,3.6C144.6,73.8,138.9,76.6,134.4,79.4z"/>

</g>
</svg>
