<?xml version="1.0" encoding="utf-8"?>
<!-- Generator: Adobe Illustrator 23.0.2, SVG Export Plug-In . SVG Version: 6.00 Build 0)  -->
<svg version="1.1" baseProfile="tiny" id="Layer_2" xmlns="http://www.w3.org/2000/svg" xmlns:xlink="http://www.w3.org/1999/xlink"
	 x="0px" y="0px" viewBox="0 0 16 16" xml:space="preserve">
<path fill="#070606" d="M10,0H2C0.9,0,0,0.9,0,2v9c0,1.1,0.9,2,2,2h8c1.1,0,2-0.9,2-2V2C12,0.9,11.1,0,10,0z M11,11c0,0.6-0.4,1-1,1
	H2c-0.6,0-1-0.4-1-1v-1h10V11z M2.4,9l2.4-4l2.1,3.6l1.3-1.3L9.5,9H2.4z M11,9h-0.3L8.2,5.7L7,6.9L4.8,3L1.2,9H1V2c0-0.6,0.4-1,1-1
	h8c0.6,0,1,0.4,1,1V9z"/>
<path fill="#070606" d="M14,3h-1v1h1c0.6,0,1,0.4,1,1v9c0,0.6-0.4,1-1,1H6c-0.6,0-1-0.4-1-1H4c0,1.1,0.9,2,2,2h8c1.1,0,2-0.9,2-2V5
	C16,3.9,15.1,3,14,3z"/>
</svg>
