<?xml version="1.0" encoding="utf-8"?>
<!-- Generator: Adobe Illustrator 23.0.2, SVG Export Plug-In . SVG Version: 6.00 Build 0)  -->
<svg version="1.1" baseProfile="tiny" id="Layer_2" xmlns="http://www.w3.org/2000/svg" xmlns:xlink="http://www.w3.org/1999/xlink"
	 x="0px" y="0px" viewBox="0 0 16 16" xml:space="preserve">
<path fill="#070606" d="M13.7,10.3L13,11l-2.4-2.3L9,10.3L6.5,5.9l-3.4,5l-0.8-0.6L6.6,4l2.6,4.6l1.3-1.4L13.7,10.3z"/>
<path fill="#070606" d="M14,0H2C0.9,0,0,0.9,0,2v10v1v1c0,1.1,0.9,2,2,2h12c1.1,0,2-0.9,2-2v-1v-1V2C16,0.9,15.1,0,14,0z M15,14
	c0,0.6-0.4,1-1,1H2c-0.6,0-1-0.4-1-1v-1h14V14z M1,12V2c0-0.6,0.4-1,1-1h12c0.6,0,1,0.4,1,1v10H1z"/>
</svg>
