<?xml version="1.0" encoding="utf-8"?>
<!-- Generator: Adobe Illustrator 23.0.2, SVG Export Plug-In . SVG Version: 6.00 Build 0)  -->
<svg version="1.1" baseProfile="tiny" id="Layer_1" xmlns="http://www.w3.org/2000/svg" xmlns:xlink="http://www.w3.org/1999/xlink"
	 x="0px" y="0px" viewBox="0 0 16 16" xml:space="preserve">
<path fill="#231F20" d="M5.1,1.1L3.5,2.8L1.9,1.1C1.7,1,1.3,1,1.1,1.1S1,1.7,1.1,1.9l1.6,1.6L1.1,5.1C1,5.3,1,5.7,1.1,5.9
	C1.3,6,1.7,6,1.9,5.9l1.6-1.6l1.6,1.6C5.3,6,5.7,6,5.9,5.9C6,5.7,6,5.3,5.9,5.1L4.2,3.5l1.6-1.6C6,1.7,6,1.3,5.9,1.1
	C5.7,1,5.3,1,5.1,1.1z"/>
<path fill="#231F20" d="M15.1,10.1l-3.6,3.6l-1.6-1.6c-0.2-0.2-0.5-0.2-0.7,0c-0.2,0.2-0.2,0.5,0,0.7l2,2c0.2,0.2,0.5,0.2,0.7,0l4-4
	c0.2-0.2,0.2-0.5,0-0.7C15.7,10,15.3,10,15.1,10.1z"/>
<path fill="#231F20" d="M14,0h-3C9.9,0,9,0.9,9,2v3c0,1.1,0.9,2,2,2h3c1.1,0,2-0.9,2-2V2C16,0.9,15.1,0,14,0z M15,5c0,0.6-0.4,1-1,1
	h-3c-0.6,0-1-0.4-1-1V2c0-0.6,0.4-1,1-1h3c0.6,0,1,0.4,1,1V5z"/>
<path fill="#231F20" d="M5,9H2c-1.1,0-2,0.9-2,2v3c0,1.1,0.9,2,2,2h3c1.1,0,2-0.9,2-2v-3C7,9.9,6.1,9,5,9z M6,14c0,0.6-0.4,1-1,1H2
	c-0.6,0-1-0.4-1-1v-3c0-0.6,0.4-1,1-1h3c0.6,0,1,0.4,1,1V14z"/>
</svg>
