<?xml version="1.0" encoding="utf-8"?>
<!-- Generator: Adobe Illustrator 22.1.0, SVG Export Plug-In . SVG Version: 6.00 Build 0)  -->
<svg version="1.1" baseProfile="tiny" xmlns="http://www.w3.org/2000/svg" xmlns:xlink="http://www.w3.org/1999/xlink" x="0px"
	 y="0px" viewBox="0 0 16 16" xml:space="preserve">
<g id="Layer_2">
</g>
<g id="Layer_3">
	<path fill="#070606" d="M11.1,5.5l2.8-3.7c0.1-0.2,0.1-0.4,0-0.5S13.7,1,13.5,1H3V0.5C3,0.2,2.8,0,2.5,0S2,0.2,2,0.5v1v6v2V14v1v1
		h1v-1v-2v-3h10.5c0.2,0,0.4-0.1,0.4-0.3s0.1-0.4,0-0.5L11.1,5.5z M3,9V8V7V2h9.5l-2.4,3.2c-0.1,0.2-0.1,0.4,0,0.6L12.5,9H3z"/>
</g>
</svg>
