<?xml version="1.0" encoding="utf-8"?>
<!-- Generator: Adobe Illustrator 22.1.0, SVG Export Plug-In . SVG Version: 6.00 Build 0)  -->
<svg version="1.1" baseProfile="tiny" xmlns="http://www.w3.org/2000/svg" xmlns:xlink="http://www.w3.org/1999/xlink" x="0px"
	 y="0px" viewBox="0 0 16 16" xml:space="preserve">
<g id="Layer_3" display="none">
	<g id="TQTI60.tif" display="inline">
		
			<image width="215" height="235" id="Layer_0_1_" xlink:href="CAA67855ECBE6638.png"  transform="matrix(6.808510e-02 0 0 6.808510e-02 1.3617 0)">
		</image>
	</g>
</g>
<g id="Layer_2">
	<path fill="#070606" d="M12,7l0-2.8c0-2.1-1.5-4-3.6-4.2C6-0.2,4,1.7,4,4v3H2v7c0,1.1,0.9,2,2,2h8c1.1,0,2-0.9,2-2V7H12z M8.5,11.8
		V13h-1v-1.2C7.2,11.7,7,11.4,7,11c0-0.6,0.4-1,1-1s1,0.4,1,1C9,11.4,8.8,11.7,8.5,11.8z M5,7V4c0-1.7,1.3-3,3-3s3,1.3,3,3v3H5z"/>
</g>
</svg>
