<?xml version="1.0" encoding="utf-8"?>
<!-- Generator: Adobe Illustrator 23.0.2, SVG Export Plug-In . SVG Version: 6.00 Build 0)  -->
<svg version="1.1" baseProfile="tiny" xmlns="http://www.w3.org/2000/svg" xmlns:xlink="http://www.w3.org/1999/xlink" x="0px"
	 y="0px" viewBox="0 0 16 16" xml:space="preserve">
<g id="Layer_4">
</g>
<g id="Layer_3">
</g>
<g id="Layer_5">
</g>
<g id="Layer_2">
	<path fill="#070606" d="M14.9,7.7L13,5c0,0,0,0,0,0l1.7-1.7c0.1-0.1,0.1-0.4-0.1-0.5L9.7,1.1c-0.1,0-0.2,0-0.3,0.1L7.5,3L5.6,1.1
		C5.6,1.1,5.4,1,5.3,1.1L0.4,2.8C0.2,2.9,0.2,3.2,0.3,3.3L2,5c0,0,0,0,0,0L0.1,7.7c-0.1,0.2,0,0.4,0.1,0.4L2,8.8v3.9
		c0,0.2,0.1,0.4,0.3,0.5l4.8,1.8c0.1,0,0.2,0.1,0.3,0.1s0.2,0,0.3-0.1l4.8-1.8c0.2-0.1,0.3-0.3,0.3-0.5V8.8l1.8-0.7
		C15,8.1,15.1,7.8,14.9,7.7z M9.8,2.2l3.4,1.2l-1.1,1.1L8.6,3.3L9.8,2.2z M1.8,3.4l3.4-1.2l1.2,1.2L2.9,4.5L1.8,3.4z M1.4,7.5
		l1.4-1.9l0.2-0.2l3.5,1.2L5,8.8L1.4,7.5z M7,13.8l-4-1.5V9.1l2,0.7c0.2,0.1,0.5,0,0.6-0.2l1.4-2V13.8z M7.5,6L4.6,5l2.9-1l2.9,1
		L7.5,6z M12,12.3l-4,1.5V7.7l1.4,2C9.6,9.9,9.8,9.9,10,9.9l2-0.7V12.3z M10,8.8L8.5,6.7l3.5-1.2l0.2,0.2l1.4,1.9L10,8.8z"/>
</g>
</svg>
