<?xml version="1.0" encoding="utf-8"?>
<!-- Generator: Adobe Illustrator 22.1.0, SVG Export Plug-In . SVG Version: 6.00 Build 0)  -->
<svg version="1.1" baseProfile="tiny" xmlns="http://www.w3.org/2000/svg" xmlns:xlink="http://www.w3.org/1999/xlink" x="0px"
	 y="0px" viewBox="0 0 16 16" xml:space="preserve">
<g id="Layer_3" display="none">
	<g id="TQTI60.tif" display="inline">
		
			<image width="215" height="235" id="Layer_0_1_" xlink:href="3F0ACB95CD71EAFC.png"  transform="matrix(6.808510e-02 0 0 6.808510e-02 1.3617 0)">
		</image>
	</g>
</g>
<g id="Layer_2">
	<path fill="#070606" d="M12,0H4C2.3,0,1,1.3,1,3v12c0,0.8,0.9,1.3,1.6,0.8l5.3-3.6c0.4-0.2,0.8-0.2,1.2,0l4.3,3.3
		c0.7,0.5,1.6,0,1.6-0.8V3C15,1.3,13.7,0,12,0z M14,14.8l-4.3-3.3c-0.4-0.3-0.8-0.4-1.2-0.4c-0.4,0-0.8,0.1-1.1,0.3L2,15L2,3
		c0-1.1,0.9-2,2-2h8c1.1,0,2,0.9,2,2V14.8z"/>
</g>
</svg>
