<?xml version="1.0" encoding="utf-8"?>
<!-- Generator: Adobe Illustrator 22.1.0, SVG Export Plug-In . SVG Version: 6.00 Build 0)  -->
<svg version="1.1" baseProfile="tiny" xmlns="http://www.w3.org/2000/svg" xmlns:xlink="http://www.w3.org/1999/xlink" x="0px"
	 y="0px" viewBox="0 0 16 16" xml:space="preserve">
<g id="Layer_3">
</g>
<g id="Layer_2">
</g>
<g id="Layer_4">
	<g>
		<polygon points="8,4 8,7.1 8,8 8,8.3 10.6,9.9 11.1,9.1 9,7.7 9,4 		"/>
		<path d="M8.5,0C6.3,0,4.1,1,2.7,2.7L1,1v4h4L3.4,3.4C4.7,1.9,6.5,1,8.5,1C12.1,1,15,3.9,15,7.5S12.1,14,8.5,14
			c-3,0-5.7-2.1-6.4-5.1C2.1,8.6,1.8,8.4,1.6,8.5C1.3,8.6,1.1,8.8,1.2,9.1C1.9,12.5,5,15,8.5,15c4.1,0,7.5-3.4,7.5-7.5S12.6,0,8.5,0
			z"/>
	</g>
</g>
</svg>
