<?xml version="1.0" encoding="utf-8"?>
<!-- Generator: Adobe Illustrator 22.1.0, SVG Export Plug-In . SVG Version: 6.00 Build 0)  -->
<svg version="1.1" baseProfile="tiny" id="Layer_4" xmlns="http://www.w3.org/2000/svg" xmlns:xlink="http://www.w3.org/1999/xlink"
	 x="0px" y="0px" viewBox="0 0 16 16" xml:space="preserve">
<path fill="#070606" d="M10.5,2h-6C4.2,2,4,1.8,4,1.5v0C4,1.2,4.2,1,4.5,1h6C10.8,1,11,1.2,11,1.5v0C11,1.8,10.8,2,10.5,2z"/>
<path fill="#070606" d="M12.5,4h-10C2.2,4,2,3.8,2,3.5v0C2,3.2,2.2,3,2.5,3h10C12.8,3,13,3.2,13,3.5v0C13,3.8,12.8,4,12.5,4z"/>
<path fill="#070606" d="M9.5,10H8V8.5C8,8.2,7.8,8,7.5,8S7,8.2,7,8.5V10H5.5C5.2,10,5,10.2,5,10.5C5,10.8,5.2,11,5.5,11H7v1.5
	C7,12.8,7.2,13,7.5,13S8,12.8,8,12.5V11h1.5c0.3,0,0.5-0.2,0.5-0.5C10,10.2,9.8,10,9.5,10z"/>
<path fill="#070606" d="M13,5H2C0.9,5,0,5.9,0,7v7c0,1.1,0.9,2,2,2h11c1.1,0,2-0.9,2-2V7C15,5.9,14.1,5,13,5z M14,14
	c0,0.6-0.4,1-1,1H2c-0.6,0-1-0.4-1-1V7c0-0.6,0.4-1,1-1h11c0.6,0,1,0.4,1,1V14z"/>
</svg>
