<?xml version="1.0" encoding="utf-8"?>
<!-- Generator: Adobe Illustrator 22.1.0, SVG Export Plug-In . SVG Version: 6.00 Build 0)  -->
<svg version="1.1" baseProfile="tiny" id="Layer_3" xmlns="http://www.w3.org/2000/svg" xmlns:xlink="http://www.w3.org/1999/xlink"
	 x="0px" y="0px" viewBox="0 0 16 16" xml:space="preserve">
<path fill="#0D0D0C" d="M14,2H8c0-1.1-0.9-2-2-2H2C0.9,0,0,0.9,0,2v2v1v9c0,1.1,0.9,2,2,2h12c1.1,0,2-0.9,2-2V4C16,2.9,15.1,2,14,2z
	 M15,14c0,0.6-0.4,1-1,1H2c-0.6,0-1-0.4-1-1V2c0-0.6,0.4-1,1-1h4c0.6,0,1,0.4,1,1s0.4,1,1,1h6c0.6,0,1,0.4,1,1V14z"/>
<path fill="#0D0D0C" d="M11.9,11.2l-1.4-1.4C10.8,9.3,11,8.7,11,8c0-1.7-1.3-3-3-3S5,6.3,5,8s1.3,3,3,3c0.7,0,1.3-0.2,1.8-0.6
	l1.4,1.4c0.2,0.2,0.5,0.2,0.7,0C12,11.7,12,11.4,11.9,11.2z M6,8c0-1.1,0.9-2,2-2s2,0.9,2,2c0,1.1-0.9,2-2,2S6,9.1,6,8z"/>
</svg>
