<?xml version="1.0" encoding="utf-8"?>
<!-- Generator: Adobe Illustrator 22.1.0, SVG Export Plug-In . SVG Version: 6.00 Build 0)  -->
<svg version="1.1" baseProfile="tiny" id="Layer_2" xmlns="http://www.w3.org/2000/svg" xmlns:xlink="http://www.w3.org/1999/xlink"
	 x="0px" y="0px" viewBox="0 0 16 16" xml:space="preserve">
<path fill="#070606" d="M10.5,7H4.9C4.7,5.9,3.7,5,2.5,5C1.1,5,0,6.1,0,7.5C0,8.9,1.1,10,2.5,10c1.2,0,2.2-0.9,2.4-2H7v1.5
	C7,9.8,7.2,10,7.5,10S8,9.8,8,9.5V8h1v0.5C9,8.8,9.2,9,9.5,9S10,8.8,10,8.5V8h0.5C10.8,8,11,7.8,11,7.5C11,7.2,10.8,7,10.5,7z
	 M2.5,9C1.7,9,1,8.3,1,7.5S1.7,6,2.5,6S4,6.7,4,7.5S3.3,9,2.5,9z"/>
<path d="M13.5,0h-9C3.1,0,2,1.1,2,2.5V2v0.5C2,2.8,2.2,3,2.5,3S3,2.8,3,2.5V2v0.5C3,1.7,3.7,1,4.5,1h9C14.3,1,15,1.7,15,2.5v10
	c0,0.8-0.7,1.5-1.5,1.5h-9C3.7,14,3,13.3,3,12.5l0,0C3,12.2,2.8,12,2.5,12S2,12.2,2,12.5l0,0C2,13.9,3.1,15,4.5,15h9
	c1.4,0,2.5-1.1,2.5-2.5v-10C16,1.1,14.9,0,13.5,0z"/>
</svg>
