<?xml version="1.0" encoding="utf-8"?>
<!-- Generator: Adobe Illustrator 22.1.0, SVG Export Plug-In . SVG Version: 6.00 Build 0)  -->
<svg version="1.1" baseProfile="tiny" id="Layer_3" xmlns="http://www.w3.org/2000/svg" xmlns:xlink="http://www.w3.org/1999/xlink"
	 x="0px" y="0px" viewBox="0 0 16 16" xml:space="preserve">
<g>
	<path d="M5,9.7L5,9.7L5,9.7z"/>
	<polygon points="11,9.7 11,9.7 11,9.6 	"/>
	<path d="M16,11l-1.6-7.3c-0.2-1-1-1.9-2-2.2L11,1v1l1.1,0.4c0.7,0.2,1.2,0.8,1.3,1.5l1,4.7C13.9,8.2,13.2,8,12.5,8
		c-1.4,0-2.6,0.8-3.2,2H8H6.7C6.1,8.8,4.9,8,3.5,8C2.8,8,2.1,8.2,1.6,8.6l1-4.7c0.2-0.7,0.7-1.2,1.3-1.5L5,2V1L3.6,1.5
		c-1,0.3-1.7,1.2-2,2.2L0,11h0.1C0,11.2,0,11.3,0,11.5C0,13.4,1.6,15,3.5,15c1.8,0,3.2-1.3,3.4-3l0,0c0.2-0.6,0.6-1,1-1l0,0l0,0
		c0.5,0,0.9,0.4,1,1l0,0c0.2,1.7,1.7,3,3.4,3c1.9,0,3.5-1.6,3.5-3.5C16,11.3,16,11.2,16,11L16,11z M3.5,14C2.1,14,1,12.9,1,11.5
		S2.1,9,3.5,9S6,10.1,6,11.5S4.9,14,3.5,14z M12.5,14c-1.4,0-2.5-1.1-2.5-2.5S11.1,9,12.5,9s2.5,1.1,2.5,2.5S13.9,14,12.5,14z"/>
</g>
</svg>
